<?xml version="1.0" encoding="utf-8"?>
<!-- Generator: Adobe Illustrator 23.0.1, SVG Export Plug-In . SVG Version: 6.00 Build 0)  -->
<svg version="1.1" id="Layer_1" xmlns="http://www.w3.org/2000/svg" xmlns:xlink="http://www.w3.org/1999/xlink" x="0px" y="0px"
	 viewBox="0 0 1080 1080" style="enable-background:new 0 0 1080 1080;" xml:space="preserve">
<path d="M855.3,880V200c0-18.3-14.8-33.1-33.1-33.1H257.8c-18.3,0-33.1,14.8-33.1,33.1V880c0,18.3,14.8,33.1,33.1,33.1h564.4
	C840.5,913.2,855.3,898.3,855.3,880z M540,240.1c43.6,0,79,35.5,79,79.1c0,43.6-35.5,79.1-79,79.1c-43.6,0-79.1-35.5-79.1-79.1
	C461,275.5,496.4,240.1,540,240.1z M382,549.6c10.9-79.1,70-126.3,158-126.3s147,47.2,158,126.3c1.1,7.8-1.3,15.8-6.5,21.8
	c-5.5,6.3-13.6,10-22.2,10H410.7c-8.6,0-16.7-3.6-22.2-10C383.3,565.4,380.9,557.5,382,549.6z M757.3,792.7c0,4.5-3.7,8.2-8.2,8.2
	H330.9c-4.5,0-8.2-3.7-8.2-8.2v-34.9c0-4.5,3.7-8.2,8.2-8.2h418.3c4.5,0,8.2,3.7,8.2,8.2V792.7z M757.3,688.1c0,4.5-3.7,8.2-8.2,8.2
	H330.9c-4.5,0-8.2-3.7-8.2-8.2v-34.9c0-4.5,3.7-8.2,8.2-8.2h418.3c4.5,0,8.2,3.7,8.2,8.2V688.1z"/>
</svg>
